<svg width="43" height="35" viewBox="0 0 43 35" fill="none" xmlns="http://www.w3.org/2000/svg">
<path d="M12.3572 0C6.64171 0 1.96542 4.67629 1.96542 10.3918V10.8247L0.0169678 13.4227C0.631813 13.8834 1.2761 14.1865 1.96542 14.3978V18.6723C0.908926 19.6266 0.233463 20.9931 0.233463 22.5155C0.233463 24.0379 0.908926 25.4044 1.96542 26.3587V31.1753C1.96542 33.07 3.53457 34.6392 5.42934 34.6392H36.6046C38.4993 34.6392 40.0685 33.07 40.0685 31.1753V26.3587C41.125 25.4044 41.8005 24.0379 41.8005 22.5155C41.8005 20.9931 41.125 19.6266 40.0685 18.6723V14.396C40.7578 14.1882 41.4021 13.8834 42.017 13.4227L40.0685 10.7711V10.3918C40.0685 4.67629 35.3922 0 29.6768 0H12.3572ZM12.3572 3.46392H14.0891C14.0891 4.4165 14.8685 5.19588 15.8211 5.19588C16.7737 5.19588 17.553 4.4165 17.553 3.46392H29.6768C33.52 3.46392 36.6046 6.54854 36.6046 10.3918V11.2577C36.1521 11.1222 35.7294 10.9018 35.3593 10.6082L34.4396 9.95877L33.4109 10.5546L32.1119 11.3114C30.9012 12.0354 29.4274 12.0354 28.215 11.3114L26.916 10.5546L26.1055 10.0679L25.2395 10.4454L22.7489 11.7444C22.2192 12.008 21.6355 12.1452 21.0438 12.1452C20.4521 12.1452 19.8684 12.008 19.3387 11.7444L16.7944 10.4454L15.9285 10.0661L15.1179 10.5546L13.8189 11.3114C12.6066 12.0354 11.1327 12.0354 9.92204 11.3114L8.62307 10.5546L7.59429 9.95877L6.67461 10.6082C6.30364 10.9005 5.88129 11.1208 5.42934 11.2577V10.3918C5.42934 6.54854 8.51396 3.46392 12.3572 3.46392ZM12.3572 5.19588C11.4046 5.19588 10.6252 5.97526 10.6252 6.92784C10.6252 7.88041 11.4046 8.6598 12.3572 8.6598C13.3097 8.6598 14.0891 7.88041 14.0891 6.92784C14.0891 5.97526 13.3097 5.19588 12.3572 5.19588ZM19.285 5.19588C18.3324 5.19588 17.553 5.97526 17.553 6.92784C17.553 7.88041 18.3324 8.6598 19.285 8.6598C20.2376 8.6598 21.017 7.88041 21.017 6.92784C21.017 5.97526 20.2376 5.19588 19.285 5.19588ZM7.43148 13.8557L8.13466 14.2887C9.26273 14.9661 10.5538 15.3239 11.8696 15.3239C13.1855 15.3239 14.4765 14.9661 15.6046 14.2887L16.0913 13.9631L17.7695 14.829C19.8133 15.8509 22.2207 15.8509 24.2644 14.829L25.9427 13.9631L26.4293 14.2887C27.5574 14.9661 28.8485 15.3239 30.1643 15.3239C31.4801 15.3239 32.7712 14.9661 33.8993 14.2887L34.6024 13.8557C35.2519 14.1674 35.9153 14.3631 36.6046 14.5052V17.3196H5.42934V14.5052C6.12092 14.3719 6.79339 14.1538 7.43148 13.8557ZM5.42934 20.7835H36.6046C37.5849 20.7835 38.3365 21.5352 38.3365 22.5155C38.3365 23.4958 37.5849 24.2474 36.6046 24.2474H5.42934C4.44905 24.2474 3.69738 23.4958 3.69738 22.5155C3.69738 21.5352 4.44905 20.7835 5.42934 20.7835ZM5.42934 27.7113H36.6046V31.1753H5.42934V27.7113Z" fill="white"/>
</svg>
