<svg width="45" height="41" viewBox="0 0 45 41" fill="none" xmlns="http://www.w3.org/2000/svg">
<path d="M25.0171 12L7.01709 19.9H37.0171L32.0171 13" stroke="white" stroke-width="4" stroke-linecap="round" stroke-linejoin="round"/>
<path d="M29.0171 15C31.2262 15 33.0171 13.2091 33.0171 11C33.0171 8.79086 31.2262 7 29.0171 7C26.808 7 25.0171 8.79086 25.0171 11C25.0171 13.2091 26.808 15 29.0171 15Z" fill="white" stroke="white" stroke-width="4"/>
<path d="M31.0171 7L33.0171 2" stroke="white" stroke-width="4" stroke-linecap="round"/>
<path d="M7.51709 24.957C6.91509 25.257 6.35509 25.577 5.83909 25.913C3.43509 27.481 2.01709 29.412 2.01709 31.5C2.01709 36.747 10.9711 41 22.0171 41C33.0631 41 42.0171 36.747 42.0171 31.5C42.0171 29.36 40.5291 27.387 38.0171 25.8" stroke="white" stroke-width="4"/>
<path d="M7.01709 20H37.0171V32H7.01709V20Z" stroke="white" stroke-width="4" stroke-linecap="round" stroke-linejoin="round"/>
<path d="M7.01709 20H38.0171" stroke="white" stroke-width="4"/>
</svg>
