<svg width="28" height="44" viewBox="0 0 28 44" fill="none" xmlns="http://www.w3.org/2000/svg">
<path d="M25.258 16.75L22.533 41.275C22.3911 41.9562 22.1073 42.5807 21.6815 43.1484C21.2557 43.7161 20.7448 44 20.1487 44H8.56741C7.97131 44 7.45328 43.7161 7.01331 43.1484C6.57333 42.5807 6.29657 41.9562 6.18303 41.275L3.45803 16.75C2.72001 16.75 2.08134 16.4874 1.54202 15.9623C1.00269 15.4372 0.733032 14.7985 0.733032 14.0463C0.733032 13.2941 1.00269 12.6483 1.54202 12.109C2.08134 11.5697 2.72001 11.3 3.45803 11.3H16.8701L19.2545 1.76249C19.3681 1.27994 19.6235 0.910931 20.0209 0.655463C20.4183 0.399994 20.8441 0.336127 21.2983 0.463861C21.7524 0.591595 22.0931 0.87545 22.3201 1.31542C22.5472 1.7554 22.604 2.21666 22.4905 2.69921L20.3615 11.3H25.258C25.9961 11.3 26.6347 11.5697 27.174 12.109C27.7134 12.6483 27.983 13.2941 27.983 14.0463C27.983 14.7985 27.7134 15.4372 27.174 15.9623C26.6347 16.4874 25.9961 16.75 25.258 16.75Z" fill="white"/>
</svg>
