<svg width="29" height="40" viewBox="0 0 29 40" fill="none" xmlns="http://www.w3.org/2000/svg">
<path fill-rule="evenodd" clip-rule="evenodd" d="M21.616 0L20.406 4.64L20.475 3.63L14.389 6.541V2.648L7.38897 4.79V8.41L5.61897 1.807L0.0169678 7.044L2.45697 16.147C2.57197 16.207 2.67897 16.284 2.77397 16.375C3.60397 17.178 4.40297 17.907 5.17397 18.564L2.25997 7.685L4.54997 5.545L7.38897 16.131V20.292C8.07197 20.774 8.73697 21.192 9.38897 21.542V6.27L12.389 5.353V22.72C13.149 22.898 13.899 22.979 14.651 22.961L15.657 8.151L18.247 6.911L17.186 22.535C17.993 22.285 18.812 21.923 19.652 21.453L21.98 12.766L24.82 11.914L22.86 19.226C23.8014 18.4529 24.7098 17.6405 25.583 16.791L27.731 8.777L25.964 9.229L28.733 0H21.616ZM26.045 2L23.702 9.808L20.94 10.514L23.162 2H26.045Z" fill="white"/>
<path fill-rule="evenodd" clip-rule="evenodd" d="M25.977 19.169C22.026 22.799 18.377 24.971 14.435 24.965C10.491 24.959 6.80902 22.771 2.79702 19.137L5.15402 38H23.624L25.977 19.169ZM1.85902 16C1.07902 16 0.475015 16.684 0.572015 17.458L3.17102 38.248C3.23143 38.7315 3.46624 39.1762 3.83136 39.4988C4.19648 39.8214 4.6668 39.9996 5.15402 40H23.624C24.1114 39.9999 24.582 39.8218 24.9473 39.4991C25.3126 39.1765 25.5476 38.7316 25.608 38.248L28.208 17.453C28.2423 17.1846 28.1915 16.9122 28.0628 16.6741C27.9341 16.4361 27.734 16.2444 27.4906 16.1261C27.2472 16.0079 26.9728 15.9689 26.7061 16.0148C26.4394 16.0607 26.1939 16.1892 26.004 16.382C17.064 25.178 11.844 25.142 2.77402 16.375C2.52872 16.1368 2.20094 16.0025 1.85902 16Z" fill="white"/>
</svg>
