<svg width="36" height="42" viewBox="0 0 36 42" fill="none" xmlns="http://www.w3.org/2000/svg">
<path d="M6.75 0.841217C4.95979 0.841217 3.2429 1.56199 1.97703 2.84496C0.711159 4.12794 0 5.86803 0 7.68243H36C36 5.86803 35.2888 4.12794 34.023 2.84496C32.7571 1.56199 31.0402 0.841217 29.25 0.841217H6.75Z" fill="white"/>
<path d="M6.75 19.0845C4.95979 19.0845 3.2429 18.3637 1.97703 17.0807C0.711159 15.7977 0 14.0577 0 12.2433H36C36 14.0577 35.2888 15.7977 34.023 17.0807C32.7571 18.3637 31.0402 19.0845 29.25 19.0845H6.75Z" fill="white"/>
<path d="M6.75 23.6453C4.95979 23.6453 3.2429 24.366 1.97703 25.649C0.711159 26.932 0 28.6721 0 30.4865H36C36 28.6721 35.2888 26.932 34.023 25.649C32.7571 24.366 31.0402 23.6453 29.25 23.6453H6.75Z" fill="white"/>
<path d="M6.75 41.8885C4.95979 41.8885 3.2429 41.1678 1.97703 39.8848C0.711159 38.6018 0 36.8617 0 35.0473H36C36 36.8617 35.2888 38.6018 34.023 39.8848C32.7571 41.1678 31.0402 41.8885 29.25 41.8885H6.75Z" fill="white"/>
</svg>
