<svg width="41" height="42" viewBox="0 0 41 42" fill="none" xmlns="http://www.w3.org/2000/svg">
<path fill-rule="evenodd" clip-rule="evenodd" d="M29.4749 16.1333C29.5971 16.2552 29.6941 16.4 29.7602 16.5595C29.8264 16.7189 29.8604 16.8899 29.8604 17.0625C29.8604 17.2352 29.8264 17.4061 29.7602 17.5656C29.6941 17.725 29.5971 17.8699 29.4749 17.9918L21.5999 25.8668C21.4779 25.989 21.3331 26.086 21.1736 26.1521C21.0142 26.2183 20.8432 26.2524 20.6706 26.2524C20.498 26.2524 20.327 26.2183 20.1676 26.1521C20.0081 26.086 19.8633 25.989 19.7414 25.8668L15.8039 21.9293C15.6818 21.8072 15.585 21.6624 15.519 21.5029C15.4529 21.3435 15.4189 21.1726 15.4189 21C15.4189 20.8274 15.4529 20.6566 15.519 20.4971C15.585 20.3377 15.6818 20.1928 15.8039 20.0708C15.9259 19.9487 16.0708 19.8519 16.2302 19.7859C16.3896 19.7199 16.5605 19.6859 16.7331 19.6859C16.9057 19.6859 17.0766 19.7199 17.236 19.7859C17.3955 19.8519 17.5403 19.9487 17.6624 20.0708L20.6706 23.0816L27.6164 16.1333C27.7383 16.011 27.8831 15.9141 28.0426 15.8479C28.202 15.7817 28.373 15.7477 28.5456 15.7477C28.7182 15.7477 28.8892 15.7817 29.0486 15.8479C29.2081 15.9141 29.3529 16.011 29.4749 16.1333Z" fill="white"/>
<path d="M8.85803 0H35.108C36.5004 0 37.8358 0.553123 38.8203 1.53769C39.8049 2.52226 40.358 3.85761 40.358 5.25V36.75C40.358 38.1424 39.8049 39.4777 38.8203 40.4623C37.8358 41.4469 36.5004 42 35.108 42H8.85803C7.46565 42 6.13029 41.4469 5.14572 40.4623C4.16116 39.4777 3.60803 38.1424 3.60803 36.75V34.125H6.23303V36.75C6.23303 37.4462 6.50959 38.1139 7.00188 38.6062C7.49416 39.0984 8.16184 39.375 8.85803 39.375H35.108C35.8042 39.375 36.4719 39.0984 36.9642 38.6062C37.4565 38.1139 37.733 37.4462 37.733 36.75V5.25C37.733 4.55381 37.4565 3.88613 36.9642 3.39384C36.4719 2.90156 35.8042 2.625 35.108 2.625H8.85803C8.16184 2.625 7.49416 2.90156 7.00188 3.39384C6.50959 3.88613 6.23303 4.55381 6.23303 5.25V7.875H3.60803V5.25C3.60803 3.85761 4.16116 2.52226 5.14572 1.53769C6.13029 0.553123 7.46565 0 8.85803 0V0Z" fill="white"/>
<path d="M3.60803 13.125V11.8125C3.60803 11.4644 3.74631 11.1306 3.99245 10.8844C4.2386 10.6383 4.57244 10.5 4.92053 10.5C5.26863 10.5 5.60247 10.6383 5.84861 10.8844C6.09475 11.1306 6.23303 11.4644 6.23303 11.8125V13.125H7.54553C7.89363 13.125 8.22747 13.2633 8.47361 13.5094C8.71975 13.7556 8.85803 14.0894 8.85803 14.4375C8.85803 14.7856 8.71975 15.1194 8.47361 15.3656C8.22747 15.6117 7.89363 15.75 7.54553 15.75H2.29553C1.94744 15.75 1.6136 15.6117 1.36745 15.3656C1.12131 15.1194 0.983032 14.7856 0.983032 14.4375C0.983032 14.0894 1.12131 13.7556 1.36745 13.5094C1.6136 13.2633 1.94744 13.125 2.29553 13.125H3.60803ZM3.60803 21V19.6875C3.60803 19.3394 3.74631 19.0056 3.99245 18.7594C4.2386 18.5133 4.57244 18.375 4.92053 18.375C5.26863 18.375 5.60247 18.5133 5.84861 18.7594C6.09475 19.0056 6.23303 19.3394 6.23303 19.6875V21H7.54553C7.89363 21 8.22747 21.1383 8.47361 21.3844C8.71975 21.6306 8.85803 21.9644 8.85803 22.3125C8.85803 22.6606 8.71975 22.9944 8.47361 23.2406C8.22747 23.4867 7.89363 23.625 7.54553 23.625H2.29553C1.94744 23.625 1.6136 23.4867 1.36745 23.2406C1.12131 22.9944 0.983032 22.6606 0.983032 22.3125C0.983032 21.9644 1.12131 21.6306 1.36745 21.3844C1.6136 21.1383 1.94744 21 2.29553 21H3.60803ZM3.60803 28.875V27.5625C3.60803 27.2144 3.74631 26.8806 3.99245 26.6344C4.2386 26.3883 4.57244 26.25 4.92053 26.25C5.26863 26.25 5.60247 26.3883 5.84861 26.6344C6.09475 26.8806 6.23303 27.2144 6.23303 27.5625V28.875H7.54553C7.89363 28.875 8.22747 29.0133 8.47361 29.2594C8.71975 29.5056 8.85803 29.8394 8.85803 30.1875C8.85803 30.5356 8.71975 30.8694 8.47361 31.1156C8.22747 31.3617 7.89363 31.5 7.54553 31.5H2.29553C1.94744 31.5 1.6136 31.3617 1.36745 31.1156C1.12131 30.8694 0.983032 30.5356 0.983032 30.1875C0.983032 29.8394 1.12131 29.5056 1.36745 29.2594C1.6136 29.0133 1.94744 28.875 2.29553 28.875H3.60803Z" fill="white"/>
</svg>
